<svg width="17" height="17" viewBox="0 0 17 17" fill="none" xmlns="http://www.w3.org/2000/svg">
<path d="M7.74246 1.01869C8.03363 0.327102 9.02533 0.327103 9.3165 1.01869L11.035 5.10057C11.1578 5.39213 11.4354 5.59134 11.7539 5.61657L16.2146 5.96986C16.9703 6.02972 17.2768 6.96147 16.7009 7.44875L13.3025 10.3247C13.0597 10.5302 12.9537 10.8526 13.0278 11.1597L14.0661 15.4599C14.242 16.1885 13.4398 16.7644 12.7927 16.374L8.97379 14.0695C8.70101 13.9049 8.35795 13.9049 8.08518 14.0695L4.26623 16.374C3.61918 16.7644 2.81688 16.1885 2.9928 15.4599L4.03111 11.1597C4.10528 10.8526 3.99926 10.5302 3.75652 10.3247L0.357963 7.44875C-0.21785 6.96147 0.0886034 6.02972 0.844368 5.96986L5.30503 5.61657C5.62365 5.59134 5.90119 5.39213 6.02394 5.10057L7.74246 1.01869Z" fill="#F9B811"/>
</svg>
