<svg width="135" height="22" viewBox="0 0 135 22" fill="none" xmlns="http://www.w3.org/2000/svg">
<path d="M66.8269 8.9816H66.7732L65.1674 13.5159H68.4148L66.8269 8.9816ZM69.7031 17.0943L68.9113 14.8636H64.7156L63.9284 17.0943H62.1302L65.8965 7.17539H67.896L71.6041 17.0943H69.7031ZM84.9248 6.77282H86.6782V8.43365H84.9248V6.77282ZM84.9248 9.53491H86.6379V17.0943H84.9203L84.9248 9.53491ZM72.2616 6.77282H74.0195V8.43365H72.2616V6.77282ZM72.2616 9.53491H73.9793V17.0943H72.2616V9.53491ZM83.0327 6.784H81.3195V17.0943H83.0327V6.784ZM77.5711 13.4099V17.0943H75.8445V11.4807C75.8445 10.9385 75.7864 9.90975 75.764 9.54073H77.1506C77.2982 9.54073 77.3475 9.60201 77.3475 9.74738V10.6867H77.4011C77.5353 10.3571 78.0229 9.37836 79.4453 9.37836C79.9239 9.37836 80.2773 9.53491 80.3354 9.55727C80.3354 9.88157 80.2818 10.5973 80.2818 10.7874C80.2818 10.9104 80.2147 10.9497 80.1565 10.9497C80.0939 10.9497 80.0671 10.9497 80.0402 10.8938C79.9329 10.8379 79.6824 10.7762 79.3335 10.7762C78.4165 10.7762 77.5622 11.4359 77.5622 13.3817M93.1775 17.0666V12.1852C93.1775 11.2517 92.7525 10.6867 91.9608 10.6867C90.9052 10.6867 90.2074 11.8108 90.2074 13.3204V17.0666H88.4898V11.5142C88.4898 10.905 88.4316 10.0104 88.4048 9.51255H89.7825C89.939 9.51255 89.9837 9.57427 89.9837 9.71383V10.659H90.0374C90.2432 10.3011 90.771 9.35062 92.3544 9.35062C93.9781 9.35062 94.8906 10.4631 94.8906 11.7155V17.0666H93.1775ZM97.9278 12.5095H101.104C101.171 11.2906 100.527 10.6084 99.5649 10.6084C98.554 10.6084 97.9726 11.3411 97.9278 12.5095ZM102.159 15.4058C102.253 15.4058 102.285 15.4898 102.289 15.5735C102.343 15.8978 102.352 16.6247 102.343 16.8094C102.159 16.8707 101.238 17.212 100.003 17.212C97.5924 17.212 96.1476 15.9649 96.1476 13.2869C96.1476 10.9886 97.3776 9.35062 99.5963 9.35062C101.775 9.35062 102.812 10.8097 102.812 12.6159C102.812 12.8284 102.812 13.1862 102.754 13.6671H97.9055C97.9055 14.9531 98.733 15.8812 100.249 15.8812C101.086 15.8812 101.752 15.5793 102.016 15.4505C102.07 15.4505 102.097 15.3946 102.159 15.3946M106.181 17.2008C108.413 17.2008 109.477 16.2838 109.477 14.9307C109.477 13.5942 108.529 13.0297 107.522 12.6996C107.236 12.6047 106.95 12.5095 106.69 12.42C106.002 12.1964 105.644 11.8944 105.644 11.4471C105.644 10.9775 106.073 10.6478 106.968 10.6478C107.764 10.6478 108.413 10.9721 108.668 11.0951C108.726 11.0951 108.744 11.151 108.811 11.151C108.869 11.151 108.936 11.0951 108.949 10.9886C108.949 10.7314 109.003 10.273 109.003 9.83147C108.793 9.7362 108.041 9.35062 106.834 9.35062C104.991 9.35062 103.855 10.3123 103.855 11.576C103.855 12.806 104.696 13.3652 105.621 13.6725C105.832 13.7454 106.225 13.8737 106.458 13.952C107.42 14.2709 107.692 14.5617 107.692 15.0144C107.692 15.6017 107.066 15.8924 105.988 15.8924C105.107 15.8924 104.499 15.5681 104.257 15.4505C104.199 15.4505 104.177 15.3946 104.105 15.3946C103.984 15.3946 103.975 15.5623 103.975 15.5905C103.975 15.6741 103.922 16.4569 103.922 16.7141C104.123 16.8036 105 17.2008 106.172 17.2008M5.08132 8.94223H5.02764L3.41735 13.477H6.66029L5.08132 8.94223ZM7.95747 17.0554L7.17022 14.8243H2.96558L2.1828 17.0554H0.384644L4.15093 7.13066H6.1459L9.85403 17.0554H7.95747ZM35.9809 6.7339H37.7344V8.39429H35.9809V6.7339ZM35.9809 9.49599H37.6986V17.0943H35.9809V9.49599ZM32.2997 13.3705V17.0554H30.5865V11.4418C30.5865 10.8992 30.5239 9.87039 30.5015 9.49599H31.8837C32.0313 9.49599 32.0805 9.56309 32.0805 9.70846V10.6478H32.1342C32.2683 10.3177 32.7559 9.33944 34.1783 9.33944C34.6569 9.33944 35.0148 9.496 35.0685 9.51836C35.0685 9.84266 35.0148 10.5583 35.0148 10.7484C35.0148 10.8714 34.9477 10.9104 34.8851 10.9104C34.8224 10.9104 34.7956 10.9104 34.7688 10.8545C34.6569 10.7985 34.4109 10.7314 34.062 10.7314C33.1495 10.7314 32.2907 11.397 32.2907 13.3428M19.6186 17.0272V12.191C19.6186 11.3188 19.2563 10.6478 18.3662 10.6478C17.3687 10.6478 16.7872 11.7379 16.7872 13.2757V17.0272H15.074V12.174C15.074 11.3858 14.743 10.6478 13.8216 10.6478C12.8107 10.6478 12.2382 11.7379 12.2382 13.3316V17.0272H10.525V11.52C10.525 10.8097 10.4624 9.80911 10.44 9.46781H11.8087C11.9653 9.46781 12.0145 9.52373 12.0234 9.68028V10.6196H12.0771C12.1845 10.4018 12.7481 9.31126 14.3271 9.31126C15.7897 9.31126 16.3489 10.3624 16.4875 10.6867C16.6217 10.4018 17.2792 9.31126 18.7553 9.31126C20.2896 9.31126 21.3407 10.1388 21.3407 11.7938V17.0272H19.6186ZM24.369 12.4706H27.5448C27.6119 11.2517 26.9723 10.5695 26.0061 10.5695C24.9952 10.5695 24.4182 11.3018 24.369 12.4706ZM28.6005 15.3668C28.6944 15.3668 28.7212 15.4505 28.7302 15.5346C28.7839 15.8589 28.7883 16.5857 28.7839 16.77C28.6005 16.8317 27.679 17.1726 26.44 17.1726C24.0335 17.1726 22.5887 15.926 22.5887 13.2475C22.5887 10.9497 23.8188 9.31126 26.0419 9.31126C28.2158 9.31126 29.2535 10.7708 29.2535 12.5766C29.2535 12.789 29.2535 13.1469 29.1909 13.6224H24.3511C24.3511 14.9137 25.1741 15.8419 26.686 15.8419C27.5269 15.8419 28.1934 15.5399 28.4618 15.4116C28.5155 15.4116 28.5378 15.3557 28.6049 15.3557M50.1157 13.1804H49.825C47.6734 13.1804 47.2485 13.9297 47.2485 14.6901C47.2485 15.3109 47.6555 15.9036 48.4607 15.9036C49.5342 15.9036 50.1157 14.869 50.1157 13.7843V13.1804ZM50.5317 17.016C50.393 17.016 50.2767 16.9601 50.2588 16.77C50.2588 16.524 50.2052 16.0432 50.2052 16.0432C50.1023 16.1832 49.4761 17.1614 47.906 17.1614C46.4031 17.1614 45.5398 15.9984 45.5398 14.7294C45.5398 12.9626 47.253 12.0792 49.7981 12.0792H50.1336V11.7996C50.1336 11.011 49.5655 10.5861 48.5188 10.5861C47.5705 10.5861 46.7833 10.9162 46.4791 11.0727C46.4791 11.0727 46.4031 11.1286 46.3539 11.1286C46.2689 11.1286 46.2242 11.0727 46.2197 10.9886C46.2197 10.7037 46.1615 10.1558 46.1615 9.80911C46.4747 9.69147 47.499 9.31126 48.6262 9.31126C50.8761 9.31126 51.8378 10.3512 51.8378 12.0174V14.9643C51.8378 16.0378 51.9362 16.7423 51.9765 17.0272L50.5317 17.016ZM44.6049 15.3557C44.6586 15.3557 44.7168 15.3557 44.7257 15.5176C44.7794 15.8754 44.7794 16.4681 44.7794 16.6528C44.4394 16.8206 43.6969 17.1614 42.7844 17.1614C40.4987 17.1614 39.0942 15.8307 39.0942 13.231C39.0942 10.7985 40.3421 9.30008 42.7844 9.30008C43.5985 9.30008 44.3455 9.58545 44.7794 9.80911C44.7794 10.0775 44.7257 10.6867 44.7257 10.9439C44.7257 11.0504 44.6676 11.1005 44.6049 11.1005C44.5334 11.1005 44.511 11.1005 44.4663 11.0446C43.9206 10.7762 43.4017 10.642 42.932 10.642C41.4783 10.642 40.8744 11.5983 40.8744 13.2086C40.8744 14.6453 41.3531 15.7694 42.932 15.7694C43.5359 15.7694 44.0816 15.5569 44.4215 15.3946C44.5199 15.3387 44.5289 15.3333 44.6049 15.3333M58.0106 16.9937V12.1127C58.0106 11.1787 57.5856 10.6143 56.7939 10.6143C55.7338 10.6143 55.0315 11.7325 55.0315 13.2475V16.9937H53.3184V11.4418C53.3184 10.8321 53.2647 9.93748 53.2379 9.43427H54.6111C54.7676 9.43427 54.8124 9.50136 54.8124 9.64137V10.5861H54.8705C55.0763 10.2282 55.6086 9.27771 57.1831 9.27771C58.8157 9.27771 59.7282 10.3906 59.7282 11.643V16.9937H58.0106ZM133.435 20.2424L133.645 20.9747L133.851 20.2424H134.025L134.159 21.1594H134.025L133.922 20.4102L133.712 21.1594H133.56L133.354 20.4155L133.26 21.1594H133.131L133.265 20.2424H133.435ZM133.005 20.2424V20.3596H132.732V21.1594H132.598V20.3596H132.33V20.2424H133.005ZM110.949 0.840698L115.194 7.79043C115.802 8.71322 116.294 8.97578 117.86 8.97578H121.684C118.15 4.56449 116.477 2.30561 115.932 1.8024C115.444 1.32692 114.957 0.840698 113.767 0.840698H110.949ZM122.731 9.33944C120.986 9.33944 119.291 9.51254 118.446 9.91512C117.725 10.3011 117.533 10.5413 117.533 10.9833C117.533 11.3858 117.609 11.7267 117.86 12.1239L119.957 15.5905C119.957 15.5905 119.81 15.1821 119.81 14.7182C119.81 12.5207 122.203 11.0727 125.195 11.0727C126.135 11.0727 126.537 11.2347 126.537 11.2347C126.247 10.2506 125.567 9.33944 122.731 9.33944ZM123.84 11.643C122.981 11.805 122.221 12.1181 121.653 12.5712C120.789 13.2475 120.311 14.2039 120.405 15.5569C120.405 15.6911 120.467 16.0713 120.534 16.3786C120.588 16.5016 120.588 16.5075 120.588 16.6023L122.288 19.4315C123.008 20.5891 124.198 21.12 125.687 21.12H131.681L124.659 12.6047L123.84 11.643Z" fill="#909090"/>
</svg>
