<svg width="156" height="26" viewBox="0 0 156 26" fill="none" xmlns="http://www.w3.org/2000/svg">
<path d="M17.4085 21.964C17.7666 21.964 18.1078 21.8788 18.4319 21.6911L22.1676 19.5418C22.9181 19.1153 23.7881 18.9278 24.658 19.0301C29.1955 19.5589 32.3683 20.4118 33.3064 20.6848C33.4941 20.7359 33.7158 20.6677 33.8352 20.5141C33.9888 20.3265 34.1764 20.0195 34.3299 19.576C34.4664 19.1495 34.4834 18.7913 34.4664 18.5354C34.4493 18.3307 34.3129 18.1431 34.1082 18.0919C32.6412 17.6654 26.1421 15.9085 17.4085 15.9085C8.67476 15.9085 2.1756 17.6655 0.708678 18.0919C0.503977 18.1431 0.367483 18.3307 0.350474 18.5355C0.33338 18.7742 0.350475 19.1325 0.486885 19.576C0.623296 20.0195 0.828082 20.3265 0.981587 20.5141C1.10099 20.6677 1.32278 20.7359 1.51039 20.6847C2.4486 20.4118 5.63843 19.5589 10.1588 19.0301C11.0287 18.9278 11.8987 19.1154 12.6492 19.5418L16.385 21.6911C16.7091 21.8788 17.0673 21.964 17.4085 21.964ZM11.1823 9.86998C11.387 10.2281 11.7111 10.467 12.0863 10.5693C12.4615 10.6716 12.8539 10.6205 13.2121 10.4158C13.5703 10.2111 13.8092 9.88699 13.9115 9.51169C14.0138 9.13639 13.9627 8.74417 13.758 8.38588L10.3976 2.56912C10.2953 2.38151 10.0735 2.3133 9.86878 2.33031C9.59588 2.34741 9.22058 2.48382 8.77707 2.73971C8.33357 2.99561 8.02656 3.25142 7.87305 3.47322C7.75357 3.64382 7.71946 3.86553 7.82177 4.05314L11.1823 9.86998ZM8.11186 14.0321C8.46998 14.2368 8.87938 14.2709 9.23767 14.1856C9.61288 14.0832 9.93699 13.8444 10.1417 13.4862C10.3464 13.128 10.3806 12.7187 10.2953 12.3604C10.21 12.0021 9.95408 11.661 9.59588 11.4563L3.77911 8.09588C3.59142 7.99357 3.36971 8.02767 3.19911 8.14716C2.9774 8.30058 2.72151 8.60767 2.46561 9.05118C2.20971 9.49468 2.0733 9.86998 2.0562 10.1429C2.03911 10.3646 2.1245 10.5694 2.29501 10.6717L8.11186 14.0321ZM18.8925 7.80596C18.8925 8.21537 18.7219 8.59058 18.466 8.86349C18.1931 9.13648 17.8349 9.28998 17.4085 9.28998C16.9991 9.28998 16.6238 9.11938 16.3508 8.86349C16.0779 8.59058 15.9244 8.23237 15.9244 7.80596V1.1021C15.9244 0.880395 16.0608 0.709796 16.2655 0.624497C16.5044 0.505095 16.8967 0.43689 17.4085 0.43689C17.9203 0.43689 18.3125 0.505095 18.5513 0.624497C18.739 0.72689 18.8925 0.880395 18.8925 1.1021V7.80596ZM23.6346 9.86998C23.4299 10.2281 23.1058 10.467 22.7305 10.5693C22.3552 10.6716 21.9629 10.6205 21.6047 10.4158C21.2465 10.2111 21.0077 9.88699 20.9053 9.51169C20.8029 9.13639 20.8541 8.74417 21.0588 8.38588L24.4192 2.56912C24.5216 2.38151 24.7433 2.3133 24.948 2.33031C25.221 2.34741 25.5963 2.48382 26.0398 2.73971C26.4833 2.99561 26.7904 3.25142 26.9439 3.47322C27.0633 3.64382 27.0974 3.86553 26.9951 4.05314L23.6346 9.86998ZM26.7051 14.0321C26.3469 14.2368 25.9374 14.2709 25.5792 14.1856C25.2039 14.0832 24.8798 13.8444 24.6751 13.4862C24.4704 13.128 24.4363 12.7187 24.5216 12.3604C24.6239 11.9852 24.8627 11.661 25.221 11.4563L31.0378 8.09588C31.2254 7.99357 31.4472 8.02767 31.6177 8.14716C31.8395 8.30058 32.0953 8.60767 32.3512 9.05118C32.6071 9.49468 32.7435 9.86998 32.7606 10.1429C32.7777 10.3646 32.6924 10.5694 32.5218 10.6717L26.7051 14.0321Z" fill="#909090"/>
<path d="M63.8061 9.40941H66.6036C66.706 9.40941 66.7913 9.47762 66.8425 9.56291L69.6229 16.6932L72.3181 9.56291C72.3522 9.46061 72.4545 9.40941 72.5569 9.40941H75.3033C75.4909 9.40941 75.6103 9.59702 75.525 9.75061L68.7018 25.4097C68.6676 25.495 68.5653 25.5632 68.48 25.5632H66.0578C65.8873 25.5632 65.7508 25.3756 65.8361 25.2221L68.173 19.7464L63.6014 9.75052C63.4991 9.59693 63.6185 9.40941 63.8061 9.40941ZM105.104 10.9958V9.66522C105.104 9.52873 105.223 9.40932 105.359 9.40932H107.833C107.969 9.40932 108.089 9.52873 108.089 9.66522V20.2923C108.089 20.4287 107.969 20.5482 107.833 20.5482H105.359C105.223 20.5482 105.104 20.4287 105.104 20.2923V18.8935C104.575 19.7123 103.415 20.787 101.521 20.787C97.9051 20.787 96.0287 18.0236 96.0287 14.9361C96.0287 10.9104 98.8261 9.18753 101.436 9.18753C103.159 9.17044 104.353 9.98924 105.104 10.9957V10.9958ZM99.0138 14.9533C99.0138 16.8638 100.191 18.3307 102.084 18.3307C103.978 18.3307 105.189 17.0514 105.189 15.0897C105.189 13.128 104.012 11.6269 101.999 11.6269C100.106 11.6269 99.0138 13.0939 99.0138 14.9533ZM110.323 20.2924V9.66522C110.323 9.52873 110.443 9.40932 110.579 9.40932H113.053C113.189 9.40932 113.308 9.52873 113.308 9.66522V11.1151C113.888 10.1087 114.98 9.18753 116.839 9.18753C118.75 9.18753 120.882 10.1257 120.882 14.4414V20.2923C120.882 20.4287 120.763 20.5482 120.626 20.5482H118.153C118.016 20.5482 117.897 20.4287 117.897 20.2923V14.4926C117.897 13.4521 117.641 11.661 115.799 11.661C113.957 11.661 113.308 13.2815 113.308 14.7826V20.2923C113.308 20.4287 113.189 20.5482 113.053 20.5482H110.579C110.426 20.5311 110.323 20.4287 110.323 20.2923L110.323 20.2924ZM122.997 20.2924V9.66522C122.997 9.52873 123.117 9.40932 123.253 9.40932H125.727C125.863 9.40932 125.983 9.52873 125.983 9.66522V11.1151C126.563 10.1087 127.654 9.18753 129.514 9.18753C131.424 9.18753 133.556 10.1257 133.556 14.4414V20.2923C133.556 20.4287 133.437 20.5482 133.3 20.5482H130.827C130.691 20.5482 130.571 20.4287 130.571 20.2923V14.4926C130.571 13.4521 130.315 11.661 128.473 11.661C126.631 11.661 125.983 13.2815 125.983 14.7826V20.2923C125.983 20.4287 125.863 20.5482 125.727 20.5482H123.253C123.117 20.5311 122.997 20.4288 122.997 20.2924ZM148.977 9.40941H151.382C151.518 9.40941 151.638 9.52881 151.638 9.66531V11.8657C152.115 9.68232 153.992 8.9318 155.356 9.25591C155.476 9.273 155.544 9.37531 155.544 9.49471V11.9169C155.544 12.0704 155.408 12.1898 155.237 12.1557C152.712 11.661 151.689 13.0257 151.689 14.9362V20.2924C151.689 20.4288 151.569 20.5482 151.433 20.5482H148.96C148.823 20.5482 148.704 20.4288 148.704 20.2924V9.66522C148.721 9.52873 148.84 9.40941 148.977 9.40941ZM47.4135 11.8316C46.6459 11.5757 46.2364 11.4222 45.6223 11.2175C44.9911 10.9958 43.9165 10.3816 43.9165 9.39232C43.9165 8.403 44.5988 7.7718 45.9805 7.7718C47.2429 7.7718 47.9422 8.3859 48.4028 9.37522C48.471 9.51172 48.6246 9.56291 48.761 9.49471L50.7909 8.3177C50.8932 8.24949 50.9444 8.113 50.8932 7.9936C50.2792 6.64599 48.8463 5.02547 46.0147 5.02547C42.8589 5.02547 40.8802 6.90188 40.8802 9.37531C40.8802 11.8317 42.5007 13.111 44.7012 13.8616C45.5029 14.1345 45.827 14.2539 46.5094 14.4757C47.8058 14.9192 48.4028 15.4991 48.4028 16.3009C48.4028 17.1027 47.8911 18.0578 45.8782 18.0578C44.0359 18.0578 43.3877 17.0855 43.0124 16.1644C42.9613 16.0279 42.7907 15.9597 42.6543 16.045L40.522 17.2732C40.4197 17.3414 40.3685 17.4608 40.4197 17.5802C41.2385 19.593 43.473 20.787 45.9805 20.787C48.9316 20.787 51.422 19.286 51.422 16.2497C51.422 13.2133 48.181 12.0875 47.4135 11.8317V11.8316ZM63.7038 17.6314C63.6355 17.512 63.465 17.4608 63.3455 17.5461C62.3903 18.2454 61.2645 18.2625 60.4116 16.9491C59.6952 15.8403 58.8253 14.4756 58.8253 14.4756L62.5779 9.81881C62.7144 9.64821 62.595 9.40941 62.3903 9.40941H59.4565C59.3712 9.40941 59.3029 9.4436 59.2518 9.51172L56.0107 13.9639V5.00846C56.0107 4.87197 55.8913 4.75256 55.7548 4.75256H53.2814C53.145 4.75256 53.0256 4.87197 53.0256 5.00846V20.2924C53.0256 20.4288 53.145 20.5482 53.2814 20.5482H55.7719C55.9083 20.5482 56.0278 20.4288 56.0278 20.2924V15.3285C56.0278 15.3285 57.6825 17.9383 58.3136 18.9106C59.1665 20.2411 60.3606 20.787 61.6569 20.787C62.8851 20.787 63.6697 20.4629 64.6079 19.5417C64.6932 19.4564 64.7103 19.337 64.6591 19.2347L63.7038 17.6314ZM81.4611 14.1174C80.6765 13.8275 80.4036 13.7251 79.8065 13.5034C79.2094 13.2816 78.6807 12.9575 78.6807 12.4798C78.6807 12.0022 79.1243 11.4734 80.0283 11.4734C80.8129 11.4734 81.2906 11.7804 81.5635 12.3263C81.6317 12.4627 81.7852 12.4969 81.9046 12.4286L83.6446 11.4222C83.764 11.354 83.7981 11.2005 83.7299 11.0811C83.2523 10.2452 82.314 9.18761 80.0453 9.18761C77.265 9.18761 75.8321 10.791 75.8321 12.5651C75.8321 14.3392 77.282 15.175 78.6124 15.7038C80.1136 16.3179 80.2159 16.352 80.4036 16.4203C80.8641 16.6079 81.427 16.8979 81.427 17.4267C81.427 17.9555 80.8129 18.4331 79.8748 18.4331C79.0048 18.4331 78.0155 18.0749 77.6061 17.0685C77.5549 16.932 77.3843 16.8638 77.2479 16.9491L75.4909 17.9555C75.3886 18.0237 75.3374 18.1431 75.3886 18.2625C75.9003 19.593 77.4185 20.77 79.8748 20.77C82.5358 20.77 84.3099 19.3542 84.3099 17.3584C84.3099 15.3626 82.9452 14.6633 81.4611 14.1174ZM91.4571 11.8316C92.5659 11.8316 93.3847 12.1728 94.1524 12.7186C94.2718 12.8039 94.4423 12.7698 94.5105 12.6504L95.534 10.8764C95.6023 10.757 95.5682 10.6205 95.4487 10.5523C94.3912 9.83582 93.0777 9.17061 91.3036 9.17061C89.5466 9.17061 87.9261 9.64821 86.7662 10.8252C85.6063 11.9851 85.0775 13.3669 85.0775 15.0045C85.0775 16.9831 85.8963 18.2455 86.7833 19.1325C87.6703 20.0195 89.2737 20.77 91.3207 20.77C93.163 20.77 94.5276 20.0024 95.4658 19.3883C95.5681 19.3201 95.6023 19.1666 95.534 19.0642L94.5276 17.3073C94.4594 17.1879 94.2888 17.1367 94.1695 17.222C93.5042 17.6996 92.5489 18.109 91.4742 18.109C90.2631 18.109 88.0626 17.4267 88.0626 14.9703C88.0626 12.5139 90.246 11.8316 91.4571 11.8316ZM141.642 18.3137C140.652 18.3137 139.714 18.0749 139.032 17.5291C138.349 16.9833 138.025 16.4203 138.025 15.755H146.862C146.998 15.755 147.117 15.6356 147.117 15.4991C147.066 12.8722 146.213 11.644 145.395 10.8081C144.542 9.95522 143.092 9.17052 141.181 9.17052C139.271 9.17052 137.804 9.87001 136.797 10.8594C135.808 11.8487 135.057 13.111 135.057 15.0215C135.057 16.932 135.825 18.1943 136.763 19.1325C137.702 20.0707 139.237 20.77 141.437 20.77C143.518 20.77 145.275 20.0365 146.537 18.5866C146.64 18.4672 146.606 18.2796 146.469 18.2114L144.712 17.1879C144.627 17.1366 144.507 17.1366 144.422 17.222C143.552 18.0408 142.444 18.3137 141.642 18.3137ZM141.164 11.5587C142.58 11.5587 143.876 12.4116 144.081 13.9468H138.128C138.52 12.2922 139.748 11.5587 141.164 11.5587Z" fill="#909090"/>
</svg>
