<svg xmlns="http://www.w3.org/2000/svg" xmlns:xlink="http://www.w3.org/1999/xlink">
    <symbol id="logo" viewBox="0 0 122 24">
        <path fill-rule="evenodd" clip-rule="evenodd"
            d="M15.3334 7.01118C14.3467 6.3519 13.1867 6 12 6V0C14.3734 0 16.6934 0.703788 18.6668 2.02237C20.6402 3.34094 22.1783 5.21509 23.0866 7.40778C23.9948 9.60048 24.2324 12.0133 23.7694 14.3411C23.3064 16.6688 22.1635 18.8071 20.4853 20.4853C18.8071 22.1635 16.6688 23.3064 14.3411 23.7694C12.0133 24.2324 9.60048 23.9948 7.40778 23.0866C5.21508 22.1783 3.34094 20.6402 2.02237 18.6668C0.703788 16.6934 0 14.3734 0 12H6C6 13.1867 6.3519 14.3467 7.01118 15.3334C7.67046 16.3201 8.60754 17.0891 9.70392 17.5433C10.8002 17.9974 12.0067 18.1162 13.1705 17.8847C14.3344 17.6532 15.4035 17.0818 16.2427 16.2427C17.0818 15.4035 17.6532 14.3344 17.8847 13.1705C18.1162 12.0067 17.9974 10.8002 17.5433 9.70392C17.0891 8.60754 16.3201 7.67046 15.3334 7.01118Z"
            fill="inherit" />
        <path fill-rule="evenodd" clip-rule="evenodd"
            d="M6 3.17096e-06C6 0.787934 5.84481 1.56815 5.54328 2.29611C5.24175 3.02406 4.79979 3.68549 4.24264 4.24264C3.68549 4.7998 3.02406 5.24175 2.2961 5.54328C1.56814 5.84481 0.787929 6 2.62266e-07 6L0 12C1.57586 12 3.13629 11.6896 4.5922 11.0866C6.04812 10.4835 7.371 9.59958 8.48526 8.48526C9.59958 7.371 10.4835 6.04812 11.0866 4.5922C11.6896 3.13629 12 1.57586 12 0L6 3.17096e-06Z"
            fill="inherit" />
        <path d="M75.3714 8.67139H72.4602V17.9188H75.3714V8.67139Z" fill="inherit" />
        <path
            d="M72.7842 6.93991C73.0884 7.24435 73.4688 7.39657 73.9254 7.39657C74.382 7.39657 74.7564 7.24435 75.048 6.93991C75.3402 6.62281 75.486 6.24223 75.486 5.79826C75.486 5.34161 75.3402 4.96105 75.048 4.65662C74.7564 4.35217 74.382 4.19995 73.9254 4.19995C73.4688 4.19995 73.0884 4.35217 72.7842 4.65662C72.492 4.96105 72.3462 5.34161 72.3462 5.79826C72.3462 6.24223 72.492 6.62281 72.7842 6.93991Z"
            fill="inherit" />
        <path d="M30.6937 17.9188V4.48535H33.6811V15.293H39.6367V17.9188H30.6937Z" fill="inherit" />
        <path fill-rule="evenodd" clip-rule="evenodd"
            d="M45.0164 18.1282C44.0651 18.1282 43.2025 17.9189 42.4287 17.5003C41.6676 17.069 41.0651 16.4855 40.6211 15.7497C40.1771 15.014 39.9551 14.1895 39.9551 13.2761C39.9551 12.3628 40.1771 11.5447 40.6211 10.8216C41.0651 10.0985 41.6676 9.5277 42.4287 9.10914C43.1898 8.6778 44.0524 8.46216 45.0164 8.46216C45.9805 8.46216 46.8431 8.6715 47.6042 9.09006C48.3653 9.50868 48.9679 10.0859 49.4118 10.8216C49.8558 11.5447 50.0778 12.3628 50.0778 13.2761C50.0778 14.1895 49.8558 15.014 49.4118 15.7497C48.9679 16.4855 48.3653 17.069 47.6042 17.5003C46.8431 17.9189 45.9805 18.1282 45.0164 18.1282ZM45.0164 15.4834C45.4351 15.4834 45.8029 15.3946 46.1201 15.217C46.4372 15.0267 46.6782 14.7667 46.8431 14.4368C47.0207 14.0944 47.1095 13.7074 47.1095 13.2761C47.1095 12.8449 47.0207 12.4706 46.8431 12.1535C46.6655 11.8237 46.4182 11.57 46.101 11.3924C45.7966 11.2021 45.4351 11.107 45.0164 11.107C44.6105 11.107 44.249 11.2021 43.9319 11.3924C43.6148 11.57 43.3674 11.8237 43.1898 12.1535C43.0122 12.4834 42.9235 12.8639 42.9235 13.2952C42.9235 13.7138 43.0122 14.0944 43.1898 14.4368C43.3674 14.7667 43.6148 15.0267 43.9319 15.217C44.249 15.3946 44.6105 15.4834 45.0164 15.4834Z"
            fill="inherit" />
        <path fill-rule="evenodd" clip-rule="evenodd"
            d="M52.3834 21.5341C53.1572 21.8893 54.0515 22.0669 55.0663 22.0669C56.0557 22.0669 56.9374 21.8703 57.7111 21.477C58.4849 21.0838 59.0938 20.5384 59.5377 19.8407C59.9817 19.143 60.204 18.3185 60.204 17.3671V8.67152H57.3496V9.29282C57.1373 9.11414 56.8962 8.96414 56.6266 8.84276C56.1318 8.60174 55.5673 8.4812 54.9331 8.4812C54.0832 8.4812 53.3284 8.68418 52.6688 9.09008C52.0091 9.48332 51.4891 10.0288 51.1085 10.7265C50.728 11.4115 50.5378 12.1852 50.5378 13.0479C50.5378 13.8978 50.728 14.6715 51.1085 15.3692C51.4891 16.0669 52.0091 16.6187 52.6688 17.0246C53.3284 17.4305 54.0832 17.6335 54.9331 17.6335C55.5546 17.6335 56.1191 17.513 56.6266 17.272C56.8723 17.1552 57.0943 17.0176 57.2925 16.8592V17.4432C57.2925 18.0901 57.0832 18.5912 56.6646 18.9464C56.2587 19.3016 55.6942 19.4791 54.9711 19.4791C54.3877 19.4791 53.8866 19.3777 53.468 19.1747C53.0621 18.9718 52.6942 18.6736 52.3643 18.2804L50.5758 20.069C51.0197 20.7033 51.6223 21.1917 52.3834 21.5341ZM56.5314 14.7793C56.2396 14.9569 55.8908 15.0457 55.4849 15.0457C55.079 15.0457 54.7238 14.9569 54.4193 14.7793C54.1275 14.6017 53.8992 14.3607 53.7344 14.0563C53.5694 13.7392 53.487 13.403 53.487 13.0479C53.487 12.6673 53.5694 12.3248 53.7344 12.0204C53.8992 11.7159 54.1339 11.4749 54.4383 11.2973C54.7428 11.1197 55.0916 11.0309 55.4849 11.0309C55.8908 11.0309 56.2396 11.1197 56.5314 11.2973C56.8358 11.4749 57.0641 11.7159 57.2164 12.0204C57.3813 12.3248 57.4637 12.6673 57.4637 13.0479C57.4637 13.4284 57.3813 13.7709 57.2164 14.0753C57.0641 14.3671 56.8358 14.6017 56.5314 14.7793Z"
            fill="inherit" />
        <path fill-rule="evenodd" clip-rule="evenodd"
            d="M66.3306 18.1282C65.379 18.1282 64.5162 17.9189 63.7428 17.5003C62.9814 17.069 62.379 16.4855 61.935 15.7497C61.491 15.014 61.269 14.1895 61.269 13.2761C61.269 12.3628 61.491 11.5447 61.935 10.8216C62.379 10.0985 62.9814 9.5277 63.7428 9.10914C64.5036 8.6778 65.3664 8.46216 66.3306 8.46216C67.2942 8.46216 68.157 8.6715 68.9178 9.09006C69.6792 9.50868 70.2816 10.0859 70.7256 10.8216C71.1696 11.5447 71.3916 12.3628 71.3916 13.2761C71.3916 14.1895 71.1696 15.014 70.7256 15.7497C70.2816 16.4855 69.6792 17.069 68.9178 17.5003C68.157 17.9189 67.2942 18.1282 66.3306 18.1282ZM66.3306 15.4834C66.7488 15.4834 67.1166 15.3946 67.434 15.217C67.7508 15.0267 67.992 14.7667 68.157 14.4368C68.3346 14.0944 68.4234 13.7074 68.4234 13.2761C68.4234 12.8449 68.3346 12.4706 68.157 12.1535C67.9794 11.8237 67.7322 11.57 67.4148 11.3924C67.1106 11.2021 66.7488 11.107 66.3306 11.107C65.9244 11.107 65.5626 11.2021 65.2458 11.3924C64.9284 11.57 64.6812 11.8237 64.5036 12.1535C64.326 12.4834 64.2372 12.8639 64.2372 13.2952C64.2372 13.7138 64.326 14.0944 64.5036 14.4368C64.6812 14.7667 64.9284 15.0267 65.2458 15.217C65.5626 15.3946 65.9244 15.4834 66.3306 15.4834Z"
            fill="inherit" />
        <path fill-rule="evenodd" clip-rule="evenodd"
            d="M82.3686 18.1092C81.7476 18.1092 81.1764 17.9887 80.6562 17.7477C80.3826 17.6208 80.1354 17.4694 79.9146 17.2933V21.8196H77.0412V8.67152H79.9524V9.30974C80.1636 9.137 80.3982 8.98766 80.6562 8.86178C81.1764 8.60804 81.7476 8.4812 82.3686 8.4812C83.244 8.4812 84.018 8.69054 84.69 9.10916C85.3752 9.52772 85.908 10.0986 86.2884 10.8216C86.682 11.5447 86.8782 12.3692 86.8782 13.2952C86.8782 14.2212 86.682 15.0457 86.2884 15.7688C85.908 16.4919 85.3752 17.0626 84.69 17.4813C84.018 17.8999 83.244 18.1092 82.3686 18.1092ZM81.8364 15.4834C82.2546 15.4834 82.6164 15.3882 82.9206 15.198C83.238 15.0077 83.4852 14.7476 83.6628 14.4178C83.8404 14.088 83.9292 13.7138 83.9292 13.2952C83.9292 12.8639 83.8404 12.4834 83.6628 12.1536C83.4852 11.8237 83.238 11.5701 82.9206 11.3925C82.6164 11.2021 82.2612 11.107 81.855 11.107C81.4494 11.107 81.0876 11.2021 80.7708 11.3925C80.466 11.5701 80.2254 11.8237 80.0478 12.1536C79.8702 12.4834 79.7814 12.8639 79.7814 13.2952C79.7814 13.7138 79.8636 14.088 80.0286 14.4178C80.2062 14.7476 80.4534 15.0077 80.7708 15.198C81.0876 15.3882 81.4428 15.4834 81.8364 15.4834Z"
            fill="inherit" />
        <path
            d="M89.7276 17.9378C90.2604 18.0774 90.7992 18.1471 91.3446 18.1471C92.499 18.1471 93.4122 17.8808 94.0848 17.348C94.7694 16.8152 95.112 16.0985 95.112 15.1979C95.112 14.6144 95.0046 14.145 94.7886 13.7898C94.5732 13.422 94.2942 13.1302 93.9516 12.9146C93.609 12.6989 93.2472 12.5276 92.8668 12.4008C92.4864 12.2739 92.1246 12.1661 91.7826 12.0773C91.44 11.9885 91.161 11.8871 90.945 11.7729C90.7296 11.6587 90.6216 11.5065 90.6216 11.3162C90.6216 11.1386 90.7044 11.0054 90.8688 10.9166C91.0338 10.8152 91.281 10.7645 91.611 10.7645C91.9536 10.7645 92.3022 10.8342 92.6574 10.9737C93.0252 11.1132 93.3552 11.3543 93.6468 11.6968L95.3022 10.0224C94.884 9.48959 94.3386 9.08999 93.666 8.82365C93.0066 8.54459 92.2836 8.40503 91.497 8.40503C90.7488 8.40503 90.0954 8.53187 89.5374 8.78555C88.9788 9.03929 88.5474 9.38813 88.2432 9.83207C87.939 10.2633 87.7866 10.7771 87.7866 11.3733C87.7866 11.9315 87.8946 12.3945 88.11 12.7623C88.3254 13.1175 88.605 13.3966 88.947 13.5995C89.2896 13.8025 89.6514 13.9611 90.0318 14.0752C90.4122 14.1894 90.774 14.2972 91.1166 14.3987C91.4586 14.4875 91.7382 14.5953 91.9536 14.7222C92.1822 14.8364 92.2962 15.0076 92.2962 15.2359C92.2962 15.4135 92.2008 15.553 92.0106 15.6545C91.833 15.756 91.5732 15.8067 91.2306 15.8067C90.7356 15.8067 90.279 15.7179 89.8608 15.5403C89.442 15.3501 89.0802 15.09 88.776 14.7602L87.1206 16.4346C87.438 16.7771 87.8184 17.0816 88.2624 17.348C88.719 17.6017 89.2074 17.7983 89.7276 17.9378Z"
            fill="inherit" />
        <path
            d="M100.421 18.128C99.5712 18.128 98.8164 17.9568 98.157 17.6143C97.5096 17.2591 97.0026 16.7771 96.6348 16.1682C96.2664 15.5467 96.0828 14.8363 96.0828 14.0371V8.67139H98.994V13.9991C98.994 14.3162 99.0444 14.5889 99.1464 14.8172C99.2604 15.0456 99.4254 15.2232 99.6408 15.35C99.8568 15.4769 100.117 15.5403 100.421 15.5403C100.852 15.5403 101.195 15.4071 101.449 15.1407C101.702 14.8616 101.829 14.4811 101.829 13.9991V8.67139H104.74V14.0181C104.74 14.83 104.557 15.5467 104.188 16.1682C103.82 16.7771 103.313 17.2591 102.666 17.6143C102.019 17.9568 101.271 18.128 100.421 18.128Z"
            fill="inherit" />
        <path
            d="M109.099 8.67152H106.187V17.9189H109.099V12.5151C109.099 12.198 109.162 11.9316 109.289 11.7159C109.429 11.5003 109.613 11.3353 109.841 11.2212C110.069 11.0943 110.329 11.0309 110.621 11.0309C111.04 11.0309 111.388 11.1641 111.667 11.4305C111.959 11.6842 112.105 12.0457 112.105 12.5151V17.9189H115.016V12.5151C115.016 12.198 115.08 11.9316 115.207 11.7159C115.346 11.5003 115.53 11.3353 115.759 11.2212C115.987 11.0943 116.247 11.0309 116.539 11.0309C116.957 11.0309 117.306 11.1641 117.585 11.4305C117.877 11.6842 118.022 12.0457 118.022 12.5151V17.9189H120.934V12.1916C120.934 11.4178 120.769 10.7582 120.439 10.2127C120.122 9.65456 119.684 9.22964 119.126 8.93792C118.581 8.63342 117.953 8.4812 117.242 8.4812C116.519 8.4812 115.866 8.63978 115.283 8.95694C114.904 9.15896 114.572 9.41972 114.289 9.73916C114.024 9.40502 113.702 9.1316 113.323 8.91884C112.816 8.62712 112.238 8.4812 111.592 8.4812C110.906 8.4812 110.291 8.62712 109.746 8.91884C109.508 9.04022 109.293 9.1856 109.099 9.35498V8.67152Z"
            fill="inherit" />
    </symbol>
    <symbol id="map" viewBox="0 0 24 24">
        <path
            d="M7.63001 3.56993C7.80939 3.47209 8.00001 3.62261 8.00001 3.82695V17.3828C8.00001 17.606 7.84759 17.7948 7.65021 17.8991C7.64344 17.9027 7.6367 17.9063 7.63001 17.9099L5.28001 19.2499C3.64001 20.1899 2.29001 19.4099 2.29001 17.5099V7.77993C2.29001 7.14993 2.74001 6.36993 3.30001 6.04993L7.63001 3.56993Z"
            fill="inherit" />
        <path
            d="M14.7219 6.10217C14.8922 6.18652 15 6.36016 15 6.55023V19.7034C15 20.0719 14.615 20.3138 14.283 20.1538L10.033 18.1062C9.85998 18.0229 9.75 17.8478 9.75 17.6558V4.44547C9.75 4.07461 10.1396 3.83282 10.4719 3.9974L14.7219 6.10217Z"
            fill="inherit" />
        <path
            d="M22 6.49006V16.2201C22 16.8501 21.55 17.6301 20.99 17.9501L17.4986 19.951C17.1653 20.1421 16.75 19.9014 16.75 19.5172V6.33038C16.75 6.15087 16.8462 5.98513 17.0021 5.89615L19.01 4.75006C20.65 3.81006 22 4.59006 22 6.49006Z"
            fill="inherit" />
    </symbol>
    <symbol id="calendar" viewBox="0 0 24 24">
        <path
            d="M16.75 3.56V2C16.75 1.59 16.41 1.25 16 1.25C15.59 1.25 15.25 1.59 15.25 2V3.5H8.75V2C8.75 1.59 8.41 1.25 8 1.25C7.59 1.25 7.25 1.59 7.25 2V3.56C4.55 3.81 3.24 5.42 3.04 7.81C3.02 8.1 3.26 8.34 3.54 8.34H20.46C20.75 8.34 20.99 8.09 20.96 7.81C20.76 5.42 19.45 3.81 16.75 3.56Z"
            fill="inherit" />
        <path
            d="M20 9.84009H4C3.45 9.84009 3 10.2901 3 10.8401V17.0001C3 20.0001 4.5 22.0001 8 22.0001H16C19.5 22.0001 21 20.0001 21 17.0001V10.8401C21 10.2901 20.55 9.84009 20 9.84009ZM9.21 18.2101C9.11 18.3001 9 18.3701 8.88 18.4201C8.76 18.4701 8.63 18.5001 8.5 18.5001C8.37 18.5001 8.24 18.4701 8.12 18.4201C8 18.3701 7.89 18.3001 7.79 18.2101C7.61 18.0201 7.5 17.7601 7.5 17.5001C7.5 17.2401 7.61 16.9801 7.79 16.7901C7.89 16.7001 8 16.6301 8.12 16.5801C8.36 16.4801 8.64 16.4801 8.88 16.5801C9 16.6301 9.11 16.7001 9.21 16.7901C9.39 16.9801 9.5 17.2401 9.5 17.5001C9.5 17.7601 9.39 18.0201 9.21 18.2101ZM9.42 14.3801C9.37 14.5001 9.3 14.6101 9.21 14.7101C9.11 14.8001 9 14.8701 8.88 14.9201C8.76 14.9701 8.63 15.0001 8.5 15.0001C8.37 15.0001 8.24 14.9701 8.12 14.9201C8 14.8701 7.89 14.8001 7.79 14.7101C7.7 14.6101 7.63 14.5001 7.58 14.3801C7.53 14.2601 7.5 14.1301 7.5 14.0001C7.5 13.8701 7.53 13.7401 7.58 13.6201C7.63 13.5001 7.7 13.3901 7.79 13.2901C7.89 13.2001 8 13.1301 8.12 13.0801C8.36 12.9801 8.64 12.9801 8.88 13.0801C9 13.1301 9.11 13.2001 9.21 13.2901C9.3 13.3901 9.37 13.5001 9.42 13.6201C9.47 13.7401 9.5 13.8701 9.5 14.0001C9.5 14.1301 9.47 14.2601 9.42 14.3801ZM12.71 14.7101C12.61 14.8001 12.5 14.8701 12.38 14.9201C12.26 14.9701 12.13 15.0001 12 15.0001C11.87 15.0001 11.74 14.9701 11.62 14.9201C11.5 14.8701 11.39 14.8001 11.29 14.7101C11.11 14.5201 11 14.2601 11 14.0001C11 13.7401 11.11 13.4801 11.29 13.2901C11.39 13.2001 11.5 13.1301 11.62 13.0801C11.86 12.9701 12.14 12.9701 12.38 13.0801C12.5 13.1301 12.61 13.2001 12.71 13.2901C12.89 13.4801 13 13.7401 13 14.0001C13 14.2601 12.89 14.5201 12.71 14.7101Z"
            fill="inherit" />
    </symbol>
    <symbol id="search" viewBox="0 0 24 24">
        <path
            d="M11.5 21.75C5.85 21.75 1.25 17.15 1.25 11.5C1.25 5.85 5.85 1.25 11.5 1.25C17.15 1.25 21.75 5.85 21.75 11.5C21.75 17.15 17.15 21.75 11.5 21.75ZM11.5 2.75C6.67 2.75 2.75 6.68 2.75 11.5C2.75 16.32 6.67 20.25 11.5 20.25C16.33 20.25 20.25 16.32 20.25 11.5C20.25 6.68 16.33 2.75 11.5 2.75Z"
            fill="inherit" />
        <path
            d="M22 22.7499C21.81 22.7499 21.62 22.6799 21.47 22.5299L19.47 20.5299C19.18 20.2399 19.18 19.7599 19.47 19.4699C19.76 19.1799 20.24 19.1799 20.53 19.4699L22.53 21.4699C22.82 21.7599 22.82 22.2399 22.53 22.5299C22.38 22.6799 22.19 22.7499 22 22.7499Z"
            fill="inherit" />
    </symbol>
    <symbol id="facebook" viewBox="0 0 24 24">
        <path
            d="M16.5 6H13.5C12.9477 6 12.5 6.44772 12.5 7V10H16.5C16.6137 9.99748 16.7216 10.0504 16.7892 10.1419C16.8568 10.2334 16.8758 10.352 16.84 10.46L16.1 12.66C16.0318 12.8619 15.8431 12.9984 15.63 13H12.5V20.5C12.5 20.7761 12.2761 21 12 21H9.5C9.22386 21 9 20.7761 9 20.5V13H7.5C7.22386 13 7 12.7761 7 12.5V10.5C7 10.2239 7.22386 10 7.5 10H9V7C9 4.79086 10.7909 3 13 3H16.5C16.7761 3 17 3.22386 17 3.5V5.5C17 5.77614 16.7761 6 16.5 6Z"
            fill="inherit" />
    </symbol>
    <symbol id="instagram" viewBox="0 0 24 24">
        <path fill-rule="evenodd" clip-rule="evenodd"
            d="M16 3H8C5.23858 3 3 5.23858 3 8V16C3 18.7614 5.23858 21 8 21H16C18.7614 21 21 18.7614 21 16V8C21 5.23858 18.7614 3 16 3ZM19.25 16C19.2445 17.7926 17.7926 19.2445 16 19.25H8C6.20735 19.2445 4.75549 17.7926 4.75 16V8C4.75549 6.20735 6.20735 4.75549 8 4.75H16C17.7926 4.75549 19.2445 6.20735 19.25 8V16ZM16.75 8.25C17.3023 8.25 17.75 7.80228 17.75 7.25C17.75 6.69772 17.3023 6.25 16.75 6.25C16.1977 6.25 15.75 6.69772 15.75 7.25C15.75 7.80228 16.1977 8.25 16.75 8.25ZM12 7.5C9.51472 7.5 7.5 9.51472 7.5 12C7.5 14.4853 9.51472 16.5 12 16.5C14.4853 16.5 16.5 14.4853 16.5 12C16.5027 10.8057 16.0294 9.65957 15.1849 8.81508C14.3404 7.97059 13.1943 7.49734 12 7.5ZM9.25 12C9.25 13.5188 10.4812 14.75 12 14.75C13.5188 14.75 14.75 13.5188 14.75 12C14.75 10.4812 13.5188 9.25 12 9.25C10.4812 9.25 9.25 10.4812 9.25 12Z"
            fill="inherit" />
    </symbol>
    <symbol id="twitter" viewBox="0 0 24 24">
        <path
            d="M20.9728 6.7174C20.5084 7.33692 19.947 7.87733 19.3103 8.31776C19.3103 8.47959 19.3103 8.64142 19.3103 8.81225C19.3154 11.7511 18.1415 14.5691 16.0518 16.6345C13.962 18.6999 11.1312 19.8399 8.19405 19.7989C6.49599 19.8046 4.81967 19.4169 3.29642 18.6661C3.21428 18.6302 3.16131 18.549 3.16162 18.4593V18.3604C3.16162 18.2313 3.26623 18.1267 3.39527 18.1267C5.06442 18.0716 6.67402 17.4929 7.99634 16.4724C6.48553 16.4419 5.12619 15.5469 4.5006 14.1707C4.46901 14.0956 4.47884 14.0093 4.52657 13.9432C4.57429 13.8771 4.653 13.8407 4.73425 13.8471C5.19342 13.8932 5.65718 13.8505 6.1002 13.7212C4.43239 13.375 3.17921 11.9904 2.99986 10.2957C2.99349 10.2144 3.02992 10.1357 3.096 10.0879C3.16207 10.0402 3.24824 10.0303 3.32338 10.062C3.77094 10.2595 4.25409 10.3635 4.74324 10.3676C3.28184 9.40846 2.65061 7.58405 3.20655 5.92622C3.26394 5.76513 3.40181 5.64612 3.5695 5.61294C3.73718 5.57975 3.90996 5.63728 4.02432 5.76439C5.99639 7.86325 8.70604 9.11396 11.5819 9.25279C11.5083 8.95885 11.4721 8.65676 11.4741 8.35372C11.501 6.76472 12.4842 5.34921 13.9634 4.76987C15.4425 4.19054 17.1249 4.56203 18.223 5.71044C18.9714 5.56785 19.695 5.31645 20.3707 4.96421C20.4202 4.93331 20.483 4.93331 20.5325 4.96421C20.5634 5.01373 20.5634 5.07652 20.5325 5.12604C20.2052 5.87552 19.6523 6.50412 18.9509 6.92419C19.5651 6.85296 20.1685 6.70807 20.7482 6.49264C20.797 6.45942 20.8611 6.45942 20.9099 6.49264C20.9508 6.51134 20.9814 6.54711 20.9935 6.59042C21.0056 6.63373 20.998 6.68018 20.9728 6.7174Z"
            fill="inherit" />
    </symbol>
    <symbol id="star" viewBox="0 0 17 17">
        <path
            d="M7.74246 1.01869C8.03363 0.327102 9.02533 0.327103 9.3165 1.01869L11.035 5.10057C11.1578 5.39213 11.4354 5.59134 11.7539 5.61657L16.2146 5.96986C16.9703 6.02972 17.2768 6.96147 16.7009 7.44875L13.3025 10.3247C13.0597 10.5302 12.9537 10.8526 13.0278 11.1597L14.0661 15.4599C14.242 16.1885 13.4398 16.7644 12.7927 16.374L8.97379 14.0695C8.70101 13.9049 8.35795 13.9049 8.08518 14.0695L4.26623 16.374C3.61918 16.7644 2.81688 16.1885 2.9928 15.4599L4.03111 11.1597C4.10528 10.8526 3.99926 10.5302 3.75652 10.3247L0.357963 7.44875C-0.21785 6.96147 0.0886034 6.02972 0.844368 5.96986L5.30503 5.61657C5.62365 5.59134 5.90119 5.39213 6.02394 5.10057L7.74246 1.01869Z"
            fill="inherit" />
    </symbol>
    <symbol id="arrow-left" viewBox="0 0 16 17">
        <path
            d="M16 7.50012H3.83L9.42 1.91012L8 0.500122L0 8.50012L8 16.5001L9.41 15.0901L3.83 9.50012H16V7.50012Z"
            fill="inherit" />
    </symbol>
    <symbol id="arrow-right" viewBox="0 0 16 17">
        <path
            d="M8 0.500122L6.59 1.91012L12.17 7.50012H0V9.50012H12.17L6.59 15.0901L8 16.5001L16 8.50012L8 0.500122Z"
            fill="inherit" />
    </symbol>
    <symbol id="arrow-right" viewBox="0 0 16 17">
        <path
            d="M8 0.500122L6.59 1.91012L12.17 7.50012H0V9.50012H12.17L6.59 15.0901L8 16.5001L16 8.50012L8 0.500122Z"
            fill="inherit" />
    </symbol>
    <symbol id="sun" viewBox="0 0 24 24">
        <g clip-path="url(#a)" fill="inherit">
            <path
                d="M12 0a1 1 0 0 1 1 1v4a1 1 0 1 1-2 0V1a1 1 0 0 1 1-1ZM4.929 3.515a1 1 0 0 0-1.414 1.414l2.828 2.828a1 1 0 0 0 1.414-1.414L4.93 3.515ZM1 11a1 1 0 1 0 0 2h4a1 1 0 1 0 0-2H1ZM18 12a1 1 0 0 1 1-1h4a1 1 0 1 1 0 2h-4a1 1 0 0 1-1-1ZM17.657 16.243a1 1 0 0 0-1.414 1.414l2.828 2.828a1 1 0 1 0 1.414-1.414l-2.828-2.828ZM7.757 17.657a1 1 0 1 0-1.414-1.414L3.515 19.07a1 1 0 1 0 1.414 1.414l2.828-2.828ZM20.485 4.929a1 1 0 0 0-1.414-1.414l-2.828 2.828a1 1 0 1 0 1.414 1.414l2.828-2.828ZM13 19a1 1 0 1 0-2 0v4a1 1 0 1 0 2 0v-4ZM12 7a5 5 0 1 0 0 10 5 5 0 0 0 0-10Z" />
        </g>
        <defs>

            <clipPath id="a">

                <path fill="#ffffff" d="M0 0h24v24H0z" />
            </clipPath>
        </defs>
    </symbol>
    <symbol id="moon" viewBox="0 0 24 24">
        <path
            d="M12 22C17.5228 22 22 17.5228 22 12C22 11.5373 21.3065 11.4608 21.0672 11.8568C19.9289 13.7406 17.8615 15 15.5 15C11.9101 15 9 12.0899 9 8.5C9 6.13845 10.2594 4.07105 12.1432 2.93276C12.5392 2.69347 12.4627 2 12 2C6.47715 2 2 6.47715 2 12C2 17.5228 6.47715 22 12 22Z"
            fill="inherti" />
    </symbol>
    <symbol id="mail" viewBox="0 0 20 18">
        <path
            d="M15 0.5H5C2 0.5 0 2 0 5.5V12.5C0 16 2 17.5 5 17.5H15C18 17.5 20 16 20 12.5V5.5C20 2 18 0.5 15 0.5ZM15.47 6.59L12.34 9.09C11.68 9.62 10.84 9.88 10 9.88C9.16 9.88 8.31 9.62 7.66 9.09L4.53 6.59C4.21 6.33 4.16 5.85 4.41 5.53C4.67 5.21 5.14 5.15 5.46 5.41L8.59 7.91C9.35 8.52 10.64 8.52 11.4 7.91L14.53 5.41C14.85 5.15 15.33 5.2 15.58 5.53C15.84 5.85 15.79 6.33 15.47 6.59Z"
            fill="inherit" />
    </symbol>
    <symbol id="location" viewBox="0 0 290 220">
        <path
            d="M233.933 64.6667C219.933 3.0667 166.2 -24.6666 119 -24.6666C119 -24.6666 119 -24.6666 118.867 -24.6666C71.8 -24.6666 17.9333 2.93337 3.93332 64.5334C-11.6667 133.333 30.4667 191.6 68.6 228.267C82.7333 241.867 100.867 248.667 119 248.667C137.133 248.667 155.267 241.867 169.267 228.267C207.4 191.6 249.533 133.467 233.933 64.6667ZM119 131.467C95.8 131.467 77 112.667 77 89.4667C77 66.2667 95.8 47.4667 119 47.4667C142.2 47.4667 161 66.2667 161 89.4667C161 112.667 142.2 131.467 119 131.467Z"
            fill="inherit" />
    </symbol>
    <symbol id="sketch-lines" viewBox="0 0 268 24">
        <path fill-rule="evenodd" clip-rule="evenodd"
            d="M267.463 7.63302C266.371 4.80371 256.989 3.61237 228.795 2.61964C202.488 1.67653 171.862 -1.05345 118.353 0.435656C77.4521 1.57731 26.5246 6.14396 26.5246 8.67544C26.5246 10.512 28.5102 10.5616 47.4715 8.92363C64.9933 7.43452 73.9776 7.08706 84.9474 6.68997C40.969 10.5617 31.5876 13.093 8.1589 15.5253C-6.53365 17.064 2.05355 21.4817 7.41434 21.035C7.46398 21.035 75.8141 15.4756 82.2669 15.7734C82.8626 15.8231 76.3602 16.7165 67.773 17.7589C43.7983 20.7371 48.4145 25.7008 66.3831 23.4175C126.841 15.7238 183.725 13.3411 227.554 16.6668C241.403 17.7092 242.942 17.7092 242.942 16.4186C242.942 14.1353 239.169 12.3981 233.263 12.0507C224.03 11.455 188.49 9.76731 172.408 9.27094C171.167 9.22131 171.762 8.27835 172.854 8.17907C179.407 7.53379 231.426 8.02997 251.877 8.72489C266.917 9.22126 268.009 9.17177 267.463 7.63302Z"
            fill="inherit" />
    </symbol>
</svg>